<?xml version="1.0" standalone="no"?>
<!DOCTYPE svg PUBLIC "-//W3C//DTD SVG 20010904//EN"
 "http://www.w3.org/TR/2001/REC-SVG-20010904/DTD/svg10.dtd">
<svg version="1.0" xmlns="http://www.w3.org/2000/svg"
 width="382.000000pt" height="85.000000pt" viewBox="0 0 382.000000 85.000000"
 preserveAspectRatio="xMidYMid meet">

<g transform="translate(0.000000,85.000000) scale(0.100000,-0.100000)"
fill="#fff" stroke="none">
<path d="M2185 740 c-66 -16 -163 -35 -216 -41 -95 -12 -103 -12 -239 19 -22
5 -23 3 -12 -11 38 -46 237 -47 427 -2 154 37 227 45 298 34 106 -17 167 -62
167 -122 l0 -28 -26 20 c-35 28 -66 26 -103 -5 -58 -49 -66 -153 -14 -194 30
-24 54 -25 92 -5 43 22 60 70 63 175 l3 91 -37 34 c-75 69 -216 81 -403 35z
m393 -152 c20 -20 14 -45 -19 -73 -44 -37 -83 -32 -87 12 -2 22 3 38 17 52 23
23 70 28 89 9z m17 -95 c-15 -62 -82 -94 -119 -57 -24 24 -21 45 6 35 31 -11
63 -2 89 25 29 31 33 30 24 -3z"/>
<path d="M606 588 c-19 -35 -38 -71 -41 -80 -4 -10 -10 -18 -14 -18 -3 0 -21
34 -40 75 -18 41 -38 75 -44 75 -6 0 -8 -24 -4 -67 4 -38 7 -94 7 -125 0 -32
5 -58 10 -58 6 0 10 33 11 78 l1 77 24 -52 c13 -29 28 -53 34 -53 5 0 16 15
24 34 8 19 26 51 39 71 l25 37 7 -106 c4 -58 11 -106 16 -106 11 0 11 50 2
183 -3 53 -10 97 -14 97 -4 0 -24 -28 -43 -62z"/>
<path d="M815 614 c-16 -38 -65 -201 -65 -216 0 -4 4 -8 10 -8 5 0 19 32 30
70 16 54 25 70 39 70 22 0 27 -10 36 -72 7 -48 20 -76 30 -66 10 9 -36 231
-51 247 -10 12 -15 8 -29 -25z m21 -61 c-11 -11 -17 4 -9 23 7 18 8 18 11 1 2
-10 1 -21 -2 -24z"/>
<path d="M1200 573 c1 -100 25 -177 58 -181 39 -6 52 15 52 82 0 87 -11 166
-23 166 -6 0 -8 -33 -4 -93 9 -138 -7 -172 -45 -96 -13 24 -18 58 -18 117 0
48 -4 82 -10 82 -6 0 -10 -32 -10 -77z"/>
<path d="M3395 614 c-16 -38 -65 -201 -65 -216 0 -4 4 -8 10 -8 5 0 19 32 30
70 16 54 25 70 39 70 22 0 27 -10 36 -72 7 -48 20 -76 30 -66 10 9 -36 231
-51 247 -10 12 -15 8 -29 -25z m21 -61 c-11 -11 -17 4 -9 23 7 18 8 18 11 1 2
-10 1 -21 -2 -24z"/>
<path d="M249 633 c-1 -5 0 -12 1 -18 1 -5 8 -54 16 -107 20 -144 47 -188 137
-228 108 -48 225 -45 457 10 69 16 149 30 178 30 39 0 52 4 49 13 -7 21 -115
12 -257 -23 -110 -28 -155 -34 -245 -34 -94 -1 -117 2 -160 22 -27 13 -60 32
-72 44 -24 23 -48 81 -58 140 -6 36 -5 37 30 44 45 8 41 28 -6 28 -31 1 -34 4
-37 34 -3 30 -1 32 27 32 17 0 31 5 31 10 0 11 -89 14 -91 3z"/>
<path d="M984 548 c3 -50 6 -108 6 -130 0 -21 5 -38 10 -38 6 0 10 31 11 73
l0 72 17 -40 c27 -63 55 -105 71 -105 12 0 13 16 8 98 -4 53 -7 112 -7 130 0
17 -5 32 -11 32 -9 0 -10 -30 -6 -107 4 -96 3 -105 -9 -88 -8 11 -27 59 -42
107 -17 55 -32 88 -41 88 -11 0 -13 -17 -7 -92z"/>
<path d="M1386 631 c-4 -5 -2 -20 3 -33 4 -12 11 -52 15 -88 13 -117 49 -160
112 -131 38 17 29 32 -14 25 -46 -7 -57 4 -66 68 l-7 47 32 3 c18 2 35 9 37
17 4 11 -3 13 -32 8 -32 -5 -37 -3 -42 19 -9 35 2 54 31 54 14 0 25 5 25 10 0
13 -87 13 -94 1z"/>
<path d="M1836 631 c-4 -5 -2 -20 3 -33 4 -12 11 -52 15 -88 13 -117 49 -160
112 -131 38 17 29 32 -14 25 -46 -7 -57 4 -66 68 l-7 47 32 3 c18 2 35 9 37
17 4 11 -3 13 -32 8 -32 -5 -37 -3 -42 19 -9 35 2 54 31 54 14 0 25 5 25 10 0
13 -87 13 -94 1z"/>
<path d="M2281 624 c-49 -35 -65 -129 -35 -216 17 -52 85 -126 148 -163 140
-81 355 -96 480 -33 41 20 116 85 116 100 0 17 -18 7 -58 -32 -100 -94 -316
-108 -488 -30 -144 65 -222 196 -183 309 11 31 52 61 84 61 9 0 13 5 10 10 -9
15 -48 12 -74 -6z"/>
<path d="M3096 631 c-4 -5 -2 -20 3 -33 4 -12 11 -52 15 -88 13 -117 49 -160
112 -131 38 17 29 32 -14 25 -46 -7 -57 4 -66 68 l-7 47 32 3 c18 2 35 9 37
17 4 11 -3 13 -32 8 -32 -5 -37 -3 -42 19 -9 35 2 54 31 54 14 0 25 5 25 10 0
13 -87 13 -94 1z"/>
<path d="M1625 513 c4 -65 10 -121 14 -125 10 -12 94 6 99 20 3 11 -6 12 -42
7 l-46 -7 0 58 c0 84 -11 164 -22 164 -6 0 -7 -44 -3 -117z"/>
<path d="M2704 553 c3 -42 6 -96 6 -120 0 -23 5 -43 10 -43 6 0 10 24 10 52
l0 53 32 -53 c18 -28 39 -52 46 -52 15 0 13 4 -30 67 -33 50 -33 48 -8 80 39
50 21 93 -38 93 l-35 0 7 -77z m64 31 c2 -11 -6 -28 -18 -39 -20 -18 -20 -18
-20 24 0 35 3 42 18 39 9 -2 18 -12 20 -24z"/>
<path d="M2894 553 c3 -42 6 -96 6 -120 0 -23 5 -43 10 -43 6 0 10 24 10 52
l0 53 32 -53 c18 -28 39 -52 46 -52 15 0 13 4 -30 67 -33 50 -33 48 -8 80 39
50 21 93 -38 93 l-35 0 7 -77z m64 31 c2 -11 -6 -28 -18 -39 -20 -18 -20 -18
-20 24 0 35 3 42 18 39 9 -2 18 -12 20 -24z"/>
</g>
</svg>
